<svg xmlns="http://www.w3.org/2000/svg" height="24px" viewBox="0 0 24 24" width="24px" fill="#5f6368"><path d="M9.64 12.06 6.88 15.65c-.27.35-.49.77-.63 1.25-.14.47-.21.98-.21 1.5 0 1.38.49 2.56 1.46 3.54.98.97 2.16 1.46 3.54 1.46 1.38 0 2.56-.49 3.54-1.46.97-.98 1.46-2.16 1.46-3.54 0-.52-.07-1.03-.21-1.5-.14-.48-.36-.9-.63-1.25l-2.76-3.59 2.76-3.59c.27-.35.49-.77.63-1.25.14-.47.21-.98.21-1.5 0-1.38-.49-2.56-1.46-3.54C13.54.49 12.36 0 10.98 0c-1.38 0-2.56.49-3.54 1.46-.97.98-1.46 2.16-1.46 3.54 0 .52.07 1.03.21 1.5.14.48.36.9.63 1.25l2.76 3.59zM10.98 2a2.5 2.5 0 1 1 0 5 2.5 2.5 0 0 1 0-5zm0 15a2.5 2.5 0 1 1 0 5 2.5 2.5 0 0 1 0-5z"/></svg>
