<svg xmlns="http://www.w3.org/2000/svg" height="24px" viewBox="0 -960 960 960" width="24px" fill="#5f6368"><path d="M160-120v-520q0-83 58.5-141.5T360-840q83 0 141.5 58.5T560-640v80h160q33 0 56.5 23.5T800-480v360H160Zm80-80h480v-280H480v-80q0-50-35-85t-85-35q-50 0-85 35t-35 85v400h40V-200Zm400-80q17 0 28.5-11.5T680-320q0-17-11.5-28.5T640-360q-17 0-28.5 11.5T600-320q0 17 11.5 28.5T640-280ZM360-640q17 0 28.5-11.5T400-680q0-17-11.5-28.5T360-720q-17 0-28.5 11.5T320-680q0 17 11.5 28.5T360-640Z"/></svg>
