<svg width="24" height="24" viewBox="0 0 24 24" fill="none" xmlns="http://www.w3.org/2000/svg">
  <path d="M12 7C14.76 7 17 9.24 17 12C17 12.57 16.9 13.11 16.72 13.6L19.46 16.34C21.05 15.11 22.28 13.63 23 12C21.27 7.61 17 4.5 12 4.5C10.73 4.5 9.51 4.7 8.38 5.07L10.37 7.06C10.89 7.02 11.44 7 12 7ZM2 4.27L4.28 6.55L4.73 7C3.08 8.3 1.77 10 1 12C2.73 16.39 7 19.5 12 19.5C13.88 19.5 15.63 19.04 17.18 18.23L17.65 18.7L20.22 21.27L21.49 20L3.27 1.73L2 3V4.27ZM11.83 14.1L13.9 16.17C13.29 16.38 12.66 16.5 12 16.5C9.24 16.5 7 14.26 7 11.5C7 10.84 7.12 10.21 7.33 9.63L11.83 14.1ZM12 9C11.55 9 11.11 9.08 10.71 9.24L12.76 11.29C12.92 10.89 13 10.45 13 10C13 8.34 11.66 7 10 7C9.55 7 9.11 7.08 8.71 7.24L10.76 9.29C10.92 8.89 11 8.45 11 8C11 7.45 10.55 7 10 7C9.45 7 9 7.45 9 8C9 8.45 9.45 9 10 9C10.55 9 11 8.55 11 8Z" fill="black"/>
</svg>
