<svg xmlns="http://www.w3.org/2000/svg" height="24px" viewBox="0 -960 960 960" width="24px" fill="#e8eaed"><path d="m480-120-58-53q-101-91-167-153t-103.5-112.5q-37.5-50.5-51.5-91t-14-80.5q0-94 63-157t157-63q52 0 99 22t82 62q35-40 82-62t99-22q94 0 157 63t63 157q0 40-14 80.5t-51.5 91Q786-431.5 720-369.5t-167 153.5L480-120Zm0-120q93-85 153.5-142t96.5-101q36-44 48-77t12-60q0-60-40-100t-100-40q-47 0-87 26.5T510-646h-60q-13-42-53-68.5T310-741q-60 0-100 40t-40 100q0 27 12 60t48 77q36 44 96.5 101T480-240Zm0-302Z"/></svg>
