<svg xmlns="http://www.w3.org/2000/svg" height="24px" viewBox="0 -960 960 960" width="24px" fill="#5f6368"><path d="M440-80q-33 0-56.5-23.5T360-160H200q-33 0-56.5-23.5T120-240v-160q33 0 56.5-23.5T200-480q0-33-23.5-56.5T120-560v-160q0-33 23.5-56.5T200-800h560q33 0 56.5 23.5T840-720v160q-33 0-56.5 23.5T760-480q0 33 23.5 56.5T840-400v160q0 33-23.5 56.5T760-160H600q-23.5 0-56.5-23.5T520-160ZM340-460l280-280-56-56-280 280 56 56Zm-40 100q33 0 56.5-23.5T380-440q0-33-23.5-56.5T300-520q-33 0-56.5 23.5T220-440q0 33 23.5 56.5T300-360Zm360-80q33 0 56.5-23.5T740-520q0-33-23.5-56.5T660-600q-33 0-56.5 23.5T580-520q0 33 23.5 56.5T660-440Z"/></svg>
