<svg xmlns="http://www.w3.org/2000/svg" height="24px" viewBox="0 0 24 24" width="24px" fill="#5f6368"><path d="M4.5 11C3.12 11 2 9.88 2 8.5S3.12 6 4.5 6 7 7.12 7 8.5 5.88 11 4.5 11zm15 0c-1.38 0-2.5-1.12-2.5-2.5s1.12-2.5 2.5-2.5 2.5 1.12 2.5 2.5-1.12 2.5-2.5 2.5zm-11-2c-1.1 0-2-.9-2-2s.9-2 2-2 2 .9 2 2-.9 2-2 2zm7 0c-1.1 0-2-.9-2-2s.9-2 2-2 2 .9 2 2-.9 2-2 2zM12 24c-3.87 0-7-3.13-7-7 0-4.08 3.05-5.44 5.5-8 1.13-1.18 1.5-1.5 1.5-1.5s.37.32 1.5 1.5c2.45 2.56 5.5 3.92 5.5 8 0 3.87-3.13 7-7 7z"/></svg>
